<svg id="Layer_1" data-name="Layer 1" xmlns="http://www.w3.org/2000/svg" viewBox="0 0 412.93 635.7"><defs><style>.cls-1{fill:#8cc2d7;}.cls-2{fill:#c3dfe9;}.cls-3{fill:#b1d5e4;}.cls-4{fill:#a2ccde;}.cls-5{fill:#d5e9f2;}.cls-6{fill:#3ca5c2;}.cls-7{fill:#5aaeca;}.cls-8{fill:#77b8d0;}.cls-9{fill:#0097ba;}.cls-10{fill:#008aaf;}</style></defs><path class="cls-1" d="M365.3,411.39a68.69,68.69,0,1,1-77.62-58.47A68.7,68.7,0,0,1,365.3,411.39Z" transform="translate(-91.17 -103.1)"/><path class="cls-2" d="M345.13,139.24a42,42,0,1,1-47.38-35.73A41.93,41.93,0,0,1,345.13,139.24Z" transform="translate(-91.17 -103.1)"/><path class="cls-3" d="M233,189.39a51.66,51.66,0,1,1-58.35-44A51.7,51.7,0,0,1,233,189.39Z" transform="translate(-91.17 -103.1)"/><path class="cls-4" d="M209.62,332.21a59.52,59.52,0,1,1-67.23-50.59A59.56,59.56,0,0,1,209.62,332.21Z" transform="translate(-91.17 -103.1)"/><path class="cls-5" d="M445.87,174.12a31.47,31.47,0,1,1-35.54-26.87A31.41,31.41,0,0,1,445.87,174.12Z" transform="translate(-91.17 -103.1)"/><path class="cls-6" d="M249.4,702.62a42,42,0,1,1,47.42,35.75A42,42,0,0,1,249.4,702.62Z" transform="translate(-91.17 -103.1)"/><path class="cls-7" d="M361.52,652.5a51.67,51.67,0,1,1,58.38,44A51.65,51.65,0,0,1,361.52,652.5Z" transform="translate(-91.17 -103.1)"/><path class="cls-8" d="M385.68,509.63a59.49,59.49,0,1,1,67.19,50.67A59.46,59.46,0,0,1,385.68,509.63Z" transform="translate(-91.17 -103.1)"/><path class="cls-9" d="M148.66,667.87a31.49,31.49,0,1,1,35.57,26.79A31.58,31.58,0,0,1,148.66,667.87Z" transform="translate(-91.17 -103.1)"/><path class="cls-10" d="M99,588.48a23.61,23.61,0,1,1,26.66,20.06A23.58,23.58,0,0,1,99,588.48Z" transform="translate(-91.17 -103.1)"/></svg>